<?xml version="1.0" encoding="utf-8"?>
<!-- Generator: Adobe Illustrator 22.0.1, SVG Export Plug-In . SVG Version: 6.00 Build 0)  -->
<svg version="1.1" id="Layer_1" xmlns="http://www.w3.org/2000/svg" xmlns:xlink="http://www.w3.org/1999/xlink" x="0px" y="0px"
	 viewBox="0 0 617.6 95.9" style="enable-background:new 0 0 617.6 95.9;" xml:space="preserve">
<style type="text/css">
	.st0{fill:#333333;}
	.st1{clip-path:url(#SVGID_2_);}
	.st2{fill:#FFFFFF;}
</style>
<path class="st0" d="M85.3,0.7l6.9,1.2c7.6,1.2,15.2,2.4,22.7,3.6c0.3,0.1,0.8,0.3,0.9,0.5c0.5,2.5,1,5.1,1.5,7.7
	c-3.2,0.7-6.2,1.3-9.2,2c-17.7,3.7-35.4,7.5-53.2,11.2c-5.6,1.2-11.3,0.8-16.7-1.1c-6.7-2.4-13.3-4.8-20-7.2c-2.6-1.1-5.7-0.2-7.4,2
	c-1.7,2.3-1.8,6.1,0,8.2c0.8,0.9,1.8,1.7,3,2.1c10.3,3.4,20.7,6.7,31,10c4.4,1.4,8.7,0.9,13.1-0.2c16.5-3.8,33.1-7.5,49.6-11.3
	c1.2-0.2,2.5-0.4,3.7-0.4c0.8-0.1,1.2,0.2,1.5,1c0.7,2.1,1.5,4.1,2.3,6.3c-1.5,0.4-3,0.7-4.5,1.1c-18.6,4.3-37.1,8.5-55.7,12.8
	c-3.5,0.8-7.1,0.6-10.5-0.5c-8.8-2.9-17.5-5.8-26.3-8.5c-1.5-0.4-3-0.5-4.5-0.3c-4.7,0.6-5.5,7.4-3.1,9.9c0.9,1,2.1,1.7,3.3,2.2
	c9.6,3.3,19.4,6.2,28.9,9.7c5.5,2,10.7,1.3,16.1,0.1c15.8-3.7,31.6-7.2,47.4-10.8c1.6-0.3,3.2-0.4,4.7-0.7c1.1-0.3,2.2,0.4,2.5,1.6
	c0,0,0,0,0,0c0.5,1.6,0.9,3.4,1.4,5.2c-2.6,0.6-5,1.2-7.3,1.7C89.7,64,72,68.2,54.1,72.4c-3.5,0.8-7.1,0.5-10.5-0.6
	c-8.9-2.8-17.9-5.6-26.8-8.6c-3.2-1-6.6,0.9-7.6,4.1c0,0,0,0.1,0,0.1c-1.1,2.8,0.3,6.1,3.1,7.2c0.2,0.1,0.4,0.1,0.6,0.2
	c9.8,3.2,19.5,6.5,29.3,9.8c5.1,1.7,10.1,1.5,15.3,0.3c16.4-3.8,32.8-7.4,49.2-11.1c1.3-0.3,2.5-0.4,3.8-0.5c1-0.1,2,0.4,2.5,1.2
	c1.1,1.7,1.7,3.7,1.7,5.8c0,0.2-0.6,0.6-1,0.7l-19.2,4.5c-12.9,3-25.9,6.1-38.8,9c-4.2,1-8.7,0.8-12.8-0.6
	c-10.6-3.5-21.2-7-31.8-10.6c-5-1.7-8.8-4.8-10.5-10.1c-0.1-0.4-0.3-0.9-0.4-1.3v-3.6c0.9-3.6,2.5-7,4.8-9.9
	C2.4,55,0.5,51.3,0.4,46.9c-0.1-4.6,2-8.1,5.2-11.1C5.2,35.4,5,35,4.7,34.7c-4.8-5.8-5.3-12.3-1.3-18c2.7-3.8,6-6.6,11-6.8
	c1.5,0.1,2.9,0,4.4-0.2c12.6-2.4,25.3-4.9,38.1-7.3c2.7-0.5,5.4-1.1,8.1-1.7H85.3z"/>
<g>
	<defs>
		<path id="SVGID_1_" d="M165.4,68c-12.8,0-22-9.5-22-21.3v-0.1c0-11.8,9.3-21.4,22.1-21.4s22,9.5,22,21.3v0.1
			C187.5,58.4,178.2,68,165.4,68z M178,46.6c0-7.1-5.2-13-12.6-13S153,39.4,153,46.5v0.1c0,7.1,5.2,13,12.6,13S178,53.8,178,46.6
			L178,46.6z M230.9,31.3c-2.1,0-3.3,1.1-3.3,3.4v1.2h7.3v7.3h-7.2v24h-9v-24H215v-7.4h3.7v-2c0-3.5,0.9-6,2.5-7.7s4.1-2.5,7.3-2.5
			c2.2,0,4.3,0.3,6.4,0.9V32C233.6,31.5,232.3,31.3,230.9,31.3z M205.1,34.7v1.2h7.3v7.3h-7.2v24h-9v-24h-3.7v-7.4h3.7v-2
			c0-3.5,0.9-6,2.5-7.7s4.1-2.5,7.3-2.5c2.2,0,4.3,0.3,6.4,0.9V32c-1.3-0.5-2.7-0.8-4.1-0.8C206.2,31.3,205.1,32.3,205.1,34.7z
			 M275.4,42.5c8.4,2.2,13.1,5.2,13.1,12.4V55c0,8.2-6.3,12.8-15.2,12.8c-6.5,0-12.7-2.3-17.6-6.6l5.4-6.5c3.7,3.1,7.6,5,12.4,5
			c3.7,0,6-1.5,6-3.9v-0.1c0-2.3-1.4-3.5-8.3-5.3c-8.3-2.1-13.7-4.4-13.7-12.7v-0.1c0-7.5,6-12.5,14.5-12.5c5.6-0.1,11,1.8,15.4,5.3
			l-4.7,6.9c-3.7-2.5-7.3-4.1-10.8-4.1s-5.3,1.6-5.3,3.6v0.1C266.5,39.8,268.2,40.7,275.4,42.5z M315.6,67.3V49.6
			c0-4.3-2-6.5-5.4-6.5s-5.6,2.2-5.6,6.5v17.7h-9V24.1h9v16c2.1-2.7,4.7-5.1,9.3-5.1c6.8,0,10.8,4.5,10.8,11.8v20.5L315.6,67.3z
			 M361.9,54.6h-22.1c0.9,4.1,3.7,6.2,7.8,6.2c2.9,0.1,5.7-1.1,7.7-3.3l5.2,4.6c-3,3.7-7.2,5.9-13,5.9c-9.5,0-16.6-6.7-16.6-16.4
			v-0.1c0-9.1,6.5-16.5,15.7-16.5c10.6,0,15.5,8.2,15.5,17.2C362,53,361.9,53.8,361.9,54.6z M346.6,42.2c-3.7,0-6.2,2.7-6.9,6.7
			h13.6C352.7,44.9,350.3,42.2,346.6,42.2z M369.1,67.3V24.1h9v43.2H369.1z M400.2,31.3c-2.1,0-3.3,1.1-3.3,3.4v1.2h7.3v7.3H397v24
			h-9v-24h-3.7v-7.4h3.7v-2c0-3.5,0.9-6,2.5-7.7s4.1-2.5,7.3-2.5c2.2,0,4.3,0.3,6.4,0.9V32C402.9,31.5,401.6,31.3,400.2,31.3
			L400.2,31.3z M463.1,55.8L463.1,55.8c0,7.7-6.2,11.5-15.5,11.5h-19.7V25.9h19.2c4.7,0,8.5,1.3,10.8,3.7c1.9,1.8,2.9,4.4,2.8,7v0.1
			c0.1,3.8-2,7.3-5.4,8.9C460.2,47.5,463.1,50.3,463.1,55.8L463.1,55.8z M451.7,38.1c0-2.7-2.1-4.3-6-4.3h-9v8.8h8.4
			C449.1,42.6,451.7,41.3,451.7,38.1L451.7,38.1z M454.1,54.7c0-2.8-2.1-4.5-6.7-4.5h-10.5v9.1h10.8c4,0,6.5-1.4,6.5-4.5v-0.1H454.1
			z M485.3,68c-9.8,0-17.1-7.3-17.1-16.4v-0.1c0-9.1,7.3-16.5,17.2-16.5s17.1,7.3,17.1,16.4v0.1C502.5,60.6,495.1,68,485.3,68z
			 M493.6,51.5c0-4.7-3.4-8.8-8.3-8.8c-5.2,0-8.2,4-8.2,8.6v0.1c0,4.7,3.4,8.8,8.3,8.8c5.2,0,8.2-4,8.2-8.6
			C493.6,51.6,493.6,51.5,493.6,51.5z M524.6,68c-9.8,0-17.1-7.3-17.1-16.4v-0.1c0-9.1,7.3-16.5,17.2-16.5s17.1,7.3,17.1,16.4v0.1
			C541.8,60.6,534.4,68,524.6,68z M532.9,51.5c0-4.7-3.4-8.8-8.3-8.8c-5.1,0-8.2,4-8.2,8.6v0.1c0,4.7,3.4,8.8,8.3,8.8
			c5.1,0,8.2-4,8.2-8.6C532.9,51.6,532.9,51.5,532.9,51.5z M579,67.3h-10.3l-8.3-13l-3.1,3.3v9.6h-9V24.1h9v23l10.5-11.5h10.8
			l-12.1,12.5C566.5,48.1,579,67.3,579,67.3z M597,48.1c4.4,1.5,9.6,3.6,9.6,9.4v0.1c0,7-5.3,10.2-12.1,10.2
			c-4.9-0.1-9.7-1.7-13.6-4.8l3.8-5.9c2.9,2.3,6.4,3.6,10,3.8c2.6,0,3.8-0.9,3.8-2.4v-0.1c0-2-3.1-2.6-6.6-3.7
			c-4.4-1.3-9.5-3.4-9.5-9.5v-0.1c0-6.5,5.2-10.1,11.6-10.1c4.2,0.1,8.3,1.4,11.8,3.7l-3.4,6.2c-3.1-1.8-6.3-3-8.6-3
			s-3.3,0.9-3.3,2.2v0.1C590.6,46.1,593.6,46.9,597,48.1z"/>
	</defs>
	<use xlink:href="#SVGID_1_"  style="overflow:visible;fill:#333333;"/>
	<clipPath id="SVGID_2_">
		<use xlink:href="#SVGID_1_"  style="overflow:visible;"/>
	</clipPath>
	<g class="st1">
		<g>
			<path class="st0" d="M0.2,96.4c0-32.1,0-64.2,0-96.2c206,0,412,0,618,0c0,32.1,0,64.2,0,96.2C412.2,96.4,206.2,96.4,0.2,96.4z"/>
			<path class="st2" d="M140.7,70.8c0-16.3,0-32.6,0-48.9c0,0,0.1,0,0.1,0c0,16.3,0,32.6,0,48.9C140.8,70.8,140.7,70.8,140.7,70.8z"
				/>
		</g>
	</g>
</g>
<g>
	<defs>
		<path id="SVGID_3_" d="M305.1,91.2v1.2h-8.2V81.2h8.1v1.2h-6.8v3.8h6.1v1.2h-6.1v3.9L305.1,91.2L305.1,91.2z M317.8,92.4h-1.4
			l-2.6-3.4l-2.6,3.4h-1.3l3.2-4.2l-3.1-4.1h1.4l2.4,3.2l2.4-3.2h1.4l-3.1,4L317.8,92.4L317.8,92.4z M327.4,92.6
			c-1.3,0-2.5-0.7-3.2-1.8v4.1H323V84.1h1.2v1.7c0.7-1.1,1.9-1.8,3.2-1.8c2.3,0,4,1.9,4,4.2c0,0,0,0.1,0,0.1l0,0
			c0.1,2.3-1.6,4.2-3.9,4.3C327.5,92.6,327.5,92.6,327.4,92.6z M330.1,88.2c0.2-1.6-1-3-2.6-3.2c-0.1,0-0.2,0-0.3,0
			c-1.7,0.1-3,1.5-3,3.2l0,0c0,1.7,1.3,3.1,3,3.2C328.8,91.5,330.1,90.3,330.1,88.2z M337,92.4V80.7h1.2v11.7L337,92.4z M348,92.6
			c-2.4,0-4.3-1.9-4.3-4.2c0,0,0,0,0-0.1l0,0c0-2.4,1.9-4.3,4.3-4.3c2.4,0,4.3,1.9,4.3,4.3l0,0c0.1,2.3-1.8,4.2-4.1,4.3
			C348.2,92.6,348.1,92.6,348,92.6L348,92.6z M351.1,88.3c0-1.7-1.4-3.1-3.1-3.1c-1.7,0-3,1.4-3,3.1l0,0c0,1.7,1.4,3.1,3,3.1
			C349.8,91.3,351.1,90,351.1,88.3L351.1,88.3z M362.3,85.3c-1.8,0-3.3,1.3-3.3,3.8v3.3h-1.2v-8.3h1.2v2.2c0.5-1.4,1.9-2.4,3.4-2.3
			C362.4,84,362.3,85.3,362.3,85.3z M367.5,82.3v-1.4h1.4v1.4H367.5z M368.8,92.4h-1.2v-8.3h1.2V92.4L368.8,92.4z M380.9,92.4v-4.8
			c0.2-1.2-0.7-2.3-1.9-2.5c-0.1,0-0.3,0-0.4,0c-1.3,0-2.5,1-2.5,2.4c0,0.1,0,0.2,0,0.2v4.7h-1.2v-8.3h1.2v1.4
			c0.9-1.5,2.9-2.1,4.4-1.2c1,0.6,1.6,1.7,1.6,2.9v5.1L380.9,92.4L380.9,92.4z M394.7,93.9c-0.9,0.8-2,1.2-3.2,1.1
			c-1.4,0-2.7-0.4-3.8-1.2l0.6-1c0.9,0.7,2,1.1,3.2,1.1c1.5,0.2,2.8-0.9,3-2.4c0-0.2,0-0.3,0-0.5v-1c-0.7,1.1-1.9,1.7-3.2,1.7
			c-2.1,0-3.9-1.7-3.9-3.8c0,0,0-0.1,0-0.1l0,0c0-2.1,1.7-3.9,3.8-3.9c0,0,0.1,0,0.1,0c1.3,0,2.5,0.6,3.2,1.7v-1.5h1.2v6.8
			C395.9,92,395.5,93.1,394.7,93.9L394.7,93.9z M394.6,87.8c-0.1-1.6-1.4-2.9-3-2.8c0,0,0,0,0,0c-1.6,0-2.9,1.2-2.9,2.7
			c0,0,0,0,0,0.1l0,0c0,1.5,1.2,2.8,2.7,2.8c0.1,0,0.1,0,0.2,0c1.6,0.1,2.9-1.1,3-2.7C394.6,87.9,394.6,87.8,394.6,87.8z
			 M411.2,82.4v4h6.1v1.2h-6.1v4.9h-1.3V81.3h8v1.2h-6.7L411.2,82.4z M428.5,92.4v-1.2c-0.7,0.9-1.8,1.4-3,1.4
			c-1.6,0-3.1-0.9-3.1-2.6l0,0c0-1.8,1.4-2.7,3.5-2.7c0.9,0,1.7,0.1,2.5,0.4v-0.3c0-1.5-0.9-2.2-2.4-2.2c-0.9,0-1.7,0.2-2.5,0.6
			l-0.4-1c0.9-0.5,2-0.7,3-0.7c1-0.1,2,0.2,2.7,0.9c0.6,0.6,0.9,1.5,0.9,2.4v5.1h-1.2V92.4z M428.5,88.6c-0.8-0.3-1.6-0.4-2.4-0.4
			c-1.5,0-2.4,0.7-2.4,1.7l0,0c0,1,1,1.6,2.1,1.6c1.5,0,2.8-0.9,2.8-2.2v-0.7H428.5z M435.5,82.3v-1.4h1.4v1.4H435.5z M436.9,92.4
			h-1.2v-8.3h1.2V92.4z M444.6,85.2V90c-0.1,0.7,0.4,1.3,1.1,1.4c0.1,0,0.2,0,0.3,0c0.4,0,0.8-0.1,1.2-0.3v1.1
			c-0.5,0.3-1,0.4-1.5,0.4c-1.2,0.1-2.2-0.7-2.3-1.9c0-0.1,0-0.3,0-0.4v-5h-1.2v-1.1h1.2v-2.5h1.2v2.5h2.6v1.1L444.6,85.2
			L444.6,85.2z M458.6,92.4v-4.8c0.2-1.2-0.7-2.3-1.9-2.5c-0.1,0-0.3,0-0.4,0c-1.3,0-2.5,1-2.5,2.4c0,0.1,0,0.2,0,0.2v4.7h-1.2V80.7
			h1.2v4.8c0.9-1.5,2.9-2.1,4.4-1.2c1,0.6,1.6,1.7,1.6,2.9v5.1L458.6,92.4L458.6,92.4z M482.9,89.3L482.9,89.3c0,2-1.6,3.1-4.1,3.1
			h-5V81.2h4.8c1.1-0.1,2.1,0.3,2.9,1c0.5,0.5,0.7,1.1,0.7,1.8l0,0c0,1.2-0.7,2.2-1.8,2.6C481.8,87,482.9,87.8,482.9,89.3z
			 M481,84.2L481,84.2c0-1.1-0.9-1.9-2.5-1.9h-3.4v3.9h3.3C479.9,86.2,481,85.5,481,84.2z M481.6,89.2c0-1.2-1-1.9-3-1.9h-3.5v4h3.8
			C480.6,91.3,481.6,90.5,481.6,89.2z M493.8,92.4v-1.2c-0.7,0.9-1.8,1.4-3,1.4c-1.6,0-3.1-0.9-3.1-2.6l0,0c0-1.8,1.4-2.7,3.5-2.7
			c0.9,0,1.7,0.1,2.5,0.4v-0.3c0-1.5-0.9-2.2-2.4-2.2c-0.9,0-1.7,0.2-2.5,0.6l-0.4-1c0.9-0.5,2-0.7,3-0.7c1-0.1,2,0.2,2.7,0.9
			c0.6,0.6,0.9,1.5,0.9,2.4v5.1h-1.2V92.4z M493.9,88.6c-0.8-0.3-1.6-0.4-2.4-0.4c-1.5,0-2.4,0.7-2.4,1.7l0,0c0,1,1,1.6,2.1,1.6
			c1.5,0,2.8-0.9,2.8-2.2v-0.7H493.9z M503.9,87.7c1.3,0.4,2.7,0.9,2.7,2.4l0,0c0,1.6-1.3,2.5-2.9,2.5c-1.2,0-2.4-0.5-3.4-1.2
			l0.6-0.9c0.8,0.7,1.8,1.1,2.9,1.1c1,0,1.7-0.5,1.7-1.3l0,0c0-0.8-1-1.2-2.1-1.5c-1.3-0.4-2.7-0.8-2.7-2.3l0,0
			c0.1-1.4,1.3-2.5,2.7-2.4c0,0,0.1,0,0.1,0c1.1,0.1,2.1,0.4,3,0.9l-0.6,0.9c-0.7-0.5-1.5-0.8-2.4-0.8c-1,0-1.6,0.5-1.6,1.2l0,0
			C501.8,87,502.8,87.3,503.9,87.7z M519.3,88.8h-6.6c0.1,1.5,1.4,2.8,2.9,2.8c1,0,1.9-0.5,2.6-1.2l0.8,0.7c-0.8,1-2.1,1.6-3.4,1.6
			c-2.4-0.1-4.2-2.2-4.1-4.5c0.1-2.2,1.8-3.9,4-4.1c2.4,0,3.9,2,3.9,4.4C519.3,88.4,519.3,88.6,519.3,88.8L519.3,88.8z M515.4,85
			c-1.5,0.1-2.6,1.3-2.7,2.8h5.3C517.9,86.3,517.1,85,515.4,85z M531.3,92.4v-1.7c-0.7,1.1-1.9,1.8-3.2,1.8c-2.3,0-4-1.9-4-4.2
			c0,0,0-0.1,0-0.1l0,0c-0.1-2.3,1.6-4.2,3.9-4.3c0,0,0.1,0,0.1,0c1.3,0,2.5,0.7,3.2,1.8v-5h1.2v11.7L531.3,92.4z M531.4,88.2
			c0-1.7-1.3-3.1-3-3.2c-1.6,0-2.9,1.3-2.9,2.9c0,0.1,0,0.2,0,0.3l0,0c-0.2,1.6,1,3,2.6,3.2c0.1,0,0.2,0,0.3,0c1.7,0,3-1.3,3-3
			C531.4,88.3,531.4,88.3,531.4,88.2z M555.8,89.3L555.8,89.3c0,2-1.6,3.1-4.1,3.1h-5V81.2h4.8c1.1-0.1,2.1,0.3,2.9,1
			c0.5,0.5,0.7,1.1,0.7,1.8l0,0c0,1.2-0.7,2.2-1.8,2.6C554.7,87,555.8,87.8,555.8,89.3L555.8,89.3z M553.9,84.2L553.9,84.2
			c0-1.1-0.9-1.9-2.5-1.9H548v3.9h3.3C552.8,86.2,553.9,85.5,553.9,84.2L553.9,84.2z M554.5,89.2c0-1.2-1-1.9-3-1.9H548v4h3.8
			C553.4,91.3,554.5,90.5,554.5,89.2z M565,92.6c-2.4,0-4.3-1.9-4.3-4.2c0,0,0,0,0-0.1l0,0c0-2.4,1.9-4.3,4.3-4.3
			c2.4,0,4.3,1.9,4.3,4.3c0,0,0,0,0,0l0,0c0.1,2.3-1.8,4.2-4.1,4.3C565.2,92.6,565.1,92.6,565,92.6z M568.1,88.3
			c0-1.7-1.4-3.1-3-3.1c-1.7,0-3.1,1.4-3.1,3c0,0,0,0,0,0l0,0c0,1.7,1.4,3.1,3,3.1C566.8,91.4,568.1,90,568.1,88.3
			C568.1,88.3,568.1,88.3,568.1,88.3z M578.6,92.6c-2.4,0-4.3-1.9-4.3-4.2c0,0,0,0,0-0.1l0,0c0-2.4,1.9-4.3,4.3-4.3
			c2.4,0,4.3,1.9,4.3,4.3c0,0,0,0,0,0l0,0C582.9,90.6,581,92.6,578.6,92.6C578.7,92.6,578.7,92.6,578.6,92.6z M581.7,88.3
			c0-1.7-1.4-3.1-3-3.1c-1.7,0-3.1,1.4-3.1,3c0,0,0,0,0,0l0,0c-0.1,1.7,1.3,3.1,3,3.2c0,0,0.1,0,0.1,0
			C580.4,91.4,581.8,90,581.7,88.3z M595.7,92.4h-1.5l-3-3.9l-1.7,1.7v2.2h-1.2V80.7h1.2v8.1l4.5-4.7h1.5l-3.5,3.6
			C592,87.7,595.7,92.4,595.7,92.4z M603.7,87.7c1.3,0.4,2.7,0.9,2.7,2.4l0,0c0,1.6-1.3,2.5-2.9,2.5c-1.2,0-2.4-0.5-3.4-1.2l0.6-0.9
			c0.8,0.7,1.8,1.1,2.9,1.1c1,0,1.7-0.5,1.7-1.3l0,0c0-0.8-1-1.2-2.1-1.5c-1.3-0.4-2.7-0.8-2.7-2.3l0,0c0.1-1.4,1.3-2.5,2.7-2.4
			c0,0,0.1,0,0.1,0c1.1,0.1,2.1,0.4,3,0.9l-0.6,0.9c-0.7-0.5-1.5-0.8-2.4-0.8c-1,0-1.6,0.5-1.6,1.2l0,0
			C601.5,87,602.6,87.3,603.7,87.7z"/>
	</defs>
	<use xlink:href="#SVGID_3_"  style="overflow:visible;fill:#333333;"/>
	<clipPath id="SVGID_4_">
		<use xlink:href="#SVGID_3_"  style="overflow:visible;"/>
	</clipPath>
</g>
</svg>
