<svg id="Layer_1" data-name="Layer 1" xmlns="http://www.w3.org/2000/svg" xmlns:xlink="http://www.w3.org/1999/xlink" viewBox="0 0 618.01 96.24"><defs><style>.cls-1{fill:#fff;}.cls-2{clip-path:url(#clip-path);}</style><clipPath id="clip-path" transform="translate(-0.23 -0.14)"><path class="cls-1" d="M165.43,68c-12.8,0-22-9.5-22-21.3v-.1c0-11.8,9.3-21.4,22.1-21.4s22,9.5,22,21.3v.1C187.53,58.39,178.23,68,165.43,68ZM178,46.59c0-7.1-5.2-13-12.6-13S153,39.39,153,46.49v.1c0,7.1,5.2,13,12.6,13s12.4-5.8,12.4-12.9Zm52.9-15.3c-2.1,0-3.3,1.1-3.3,3.4v1.2h7.3v7.3h-7.2v24h-9v-24H215v-7.4h3.7v-2c0-3.5.9-6,2.5-7.7s4.1-2.5,7.3-2.5a21.34,21.34,0,0,1,6.4.9V32A11.86,11.86,0,0,0,230.93,31.29Zm-25.8,3.4v1.2h7.3v7.3h-7.2v24h-9v-24h-3.7v-7.4h3.7v-2c0-3.5.9-6,2.5-7.7s4.1-2.5,7.3-2.5a21.34,21.34,0,0,1,6.4.9V32a10.66,10.66,0,0,0-4.1-.8C206.23,31.29,205.13,32.29,205.13,34.69Zm70.3,7.8c8.4,2.2,13.1,5.2,13.1,12.4V55c0,8.2-6.3,12.8-15.2,12.8a26.58,26.58,0,0,1-17.6-6.6l5.4-6.5c3.7,3.1,7.6,5,12.4,5,3.7,0,6-1.5,6-3.9v-.1c0-2.3-1.4-3.5-8.3-5.3-8.3-2.1-13.7-4.4-13.7-12.7v-.1c0-7.5,6-12.5,14.5-12.5a24,24,0,0,1,15.4,5.3l-4.7,6.9c-3.7-2.5-7.3-4.1-10.8-4.1s-5.3,1.6-5.3,3.6v.1C266.53,39.79,268.23,40.69,275.43,42.49Zm40.2,24.8V49.59c0-4.3-2-6.5-5.4-6.5s-5.6,2.2-5.6,6.5v17.7h-9V24.09h9v16c2.1-2.7,4.7-5.1,9.3-5.1,6.8,0,10.8,4.5,10.8,11.8v20.5Zm46.3-12.7h-22.1c.9,4.1,3.7,6.2,7.8,6.2a10.14,10.14,0,0,0,7.7-3.3l5.2,4.6c-3,3.7-7.2,5.9-13,5.9-9.5,0-16.6-6.7-16.6-16.4v-.1c0-9.1,6.5-16.5,15.7-16.5,10.6,0,15.5,8.2,15.5,17.2A17.52,17.52,0,0,0,361.93,54.59Zm-15.3-12.4c-3.7,0-6.2,2.7-6.9,6.7h13.6C352.73,44.89,350.33,42.19,346.63,42.19Zm22.5,25.1V24.09h9v43.2Zm31.1-36c-2.1,0-3.3,1.1-3.3,3.4v1.2h7.3v7.3H397v24h-9v-24h-3.7v-7.4H388v-2c0-3.5.9-6,2.5-7.7s4.1-2.5,7.3-2.5a21.34,21.34,0,0,1,6.4.9V32a11.86,11.86,0,0,0-4-.7Zm62.9,24.5v.1c0,7.6-6.2,11.4-15.5,11.4h-19.7V25.89h19.2c4.7,0,8.5,1.3,10.8,3.7a9.42,9.42,0,0,1,2.8,7v.1a9.55,9.55,0,0,1-5.4,8.9c4.9,1.9,7.8,4.7,7.8,10.2Zm-11.4-17.7c0-2.7-2.1-4.3-6-4.3h-9v8.8h8.4c4,0,6.6-1.3,6.6-4.4Zm2.4,16.6c0-2.8-2.1-4.5-6.7-4.5h-10.5v9.1h10.8c4,0,6.5-1.4,6.5-4.5v-.1ZM485.33,68c-9.8,0-17.1-7.3-17.1-16.4v-.1c0-9.1,7.3-16.5,17.2-16.5s17.1,7.3,17.1,16.4v.1C502.53,60.59,495.13,68,485.33,68Zm8.3-16.5c0-4.7-3.4-8.8-8.3-8.8-5.2,0-8.2,4-8.2,8.6v.1c0,4.7,3.4,8.8,8.3,8.8,5.2,0,8.2-4,8.2-8.6Zm31,16.5c-9.8,0-17.1-7.3-17.1-16.4v-.1c0-9.1,7.3-16.5,17.2-16.5s17.1,7.3,17.1,16.4v.1C541.83,60.59,534.43,68,524.63,68Zm8.3-16.5c0-4.7-3.4-8.8-8.3-8.8-5.1,0-8.2,4-8.2,8.6v.1c0,4.7,3.4,8.8,8.3,8.8,5.1,0,8.2-4,8.2-8.6ZM579,67.29h-10.3l-8.3-13-3.1,3.3v9.6h-9V24.09h9v23l10.5-11.5h10.8l-12.1,12.5Zm18-19.2c4.4,1.5,9.6,3.6,9.6,9.4v.1c0,7-5.3,10.2-12.1,10.2a22.32,22.32,0,0,1-13.6-4.8l3.8-5.9a17.63,17.63,0,0,0,10,3.8c2.6,0,3.8-.9,3.8-2.4v-.1c0-2-3.1-2.6-6.6-3.7-4.4-1.3-9.5-3.4-9.5-9.5v-.1c0-6.5,5.2-10.1,11.6-10.1a22,22,0,0,1,11.8,3.7l-3.4,6.2c-3.1-1.8-6.3-3-8.6-3s-3.3.9-3.3,2.2v.1C590.63,46.09,593.63,46.89,597,48.09Z"/></clipPath></defs><title>off-shelf-books-logo-white</title><path class="cls-1" d="M85.33.69l6.9,1.2c7.6,1.2,15.2,2.4,22.7,3.6.3.1.8.3.9.5.5,2.5,1,5.1,1.5,7.7-3.2.7-6.2,1.3-9.2,2-17.7,3.7-35.4,7.5-53.2,11.2a30.64,30.64,0,0,1-16.7-1.1c-6.7-2.4-13.3-4.8-20-7.2a6.34,6.34,0,0,0-7.4,2c-1.7,2.3-1.8,6.1,0,8.2a7.12,7.12,0,0,0,3,2.1c10.3,3.4,20.7,6.7,31,10,4.4,1.4,8.7.9,13.1-.2,16.5-3.8,33.1-7.5,49.6-11.3a23,23,0,0,1,3.7-.4c.8-.1,1.2.2,1.5,1,.7,2.1,1.5,4.1,2.3,6.3-1.5.4-3,.7-4.5,1.1-18.6,4.3-37.1,8.5-55.7,12.8a19.72,19.72,0,0,1-10.5-.5c-8.8-2.9-17.5-5.8-26.3-8.5a11.39,11.39,0,0,0-4.5-.3c-4.7.6-5.5,7.4-3.1,9.9a9.07,9.07,0,0,0,3.3,2.2c9.6,3.3,19.4,6.2,28.9,9.7,5.5,2,10.7,1.3,16.1.1,15.8-3.7,31.6-7.2,47.4-10.8,1.6-.3,3.2-.4,4.7-.7a2.07,2.07,0,0,1,2.49,1.56v0c.5,1.6.9,3.4,1.4,5.2-2.6.6-5,1.2-7.3,1.7q-26.55,6.3-53.3,12.6a19.73,19.73,0,0,1-10.5-.6c-8.9-2.8-17.9-5.6-26.8-8.6a6.06,6.06,0,0,0-7.56,4.06s0,.09,0,.14a5.55,5.55,0,0,0,3.09,7.2,6.21,6.21,0,0,0,.61.2c9.8,3.2,19.5,6.5,29.3,9.8,5.1,1.7,10.1,1.5,15.3.3,16.4-3.8,32.8-7.4,49.2-11.1a23.12,23.12,0,0,1,3.8-.5,2.7,2.7,0,0,1,2.5,1.2,10.56,10.56,0,0,1,1.7,5.8c0,.2-.6.6-1,.7l-19.2,4.5c-12.9,3-25.9,6.1-38.8,9a23.23,23.23,0,0,1-12.8-.6c-10.6-3.5-21.2-7-31.8-10.6-5-1.7-8.8-4.8-10.5-10.1-.1-.4-.3-.9-.4-1.3v-3.6A26.07,26.07,0,0,1,5,58.39c-2.6-3.4-4.5-7.1-4.6-11.5-.1-4.6,2-8.1,5.2-11.1-.4-.4-.6-.8-.9-1.1-4.8-5.8-5.3-12.3-1.3-18,2.7-3.8,6-6.6,11-6.8a20.91,20.91,0,0,0,4.4-.2c12.6-2.4,25.3-4.9,38.1-7.3,2.7-.5,5.4-1.1,8.1-1.7Z" transform="translate(-0.23 -0.14)"/><path class="cls-1" d="M165.43,68c-12.8,0-22-9.5-22-21.3v-.1c0-11.8,9.3-21.4,22.1-21.4s22,9.5,22,21.3v.1C187.53,58.39,178.23,68,165.43,68ZM178,46.59c0-7.1-5.2-13-12.6-13S153,39.39,153,46.49v.1c0,7.1,5.2,13,12.6,13s12.4-5.8,12.4-12.9Zm52.9-15.3c-2.1,0-3.3,1.1-3.3,3.4v1.2h7.3v7.3h-7.2v24h-9v-24H215v-7.4h3.7v-2c0-3.5.9-6,2.5-7.7s4.1-2.5,7.3-2.5a21.34,21.34,0,0,1,6.4.9V32A11.86,11.86,0,0,0,230.93,31.29Zm-25.8,3.4v1.2h7.3v7.3h-7.2v24h-9v-24h-3.7v-7.4h3.7v-2c0-3.5.9-6,2.5-7.7s4.1-2.5,7.3-2.5a21.34,21.34,0,0,1,6.4.9V32a10.66,10.66,0,0,0-4.1-.8C206.23,31.29,205.13,32.29,205.13,34.69Zm70.3,7.8c8.4,2.2,13.1,5.2,13.1,12.4V55c0,8.2-6.3,12.8-15.2,12.8a26.58,26.58,0,0,1-17.6-6.6l5.4-6.5c3.7,3.1,7.6,5,12.4,5,3.7,0,6-1.5,6-3.9v-.1c0-2.3-1.4-3.5-8.3-5.3-8.3-2.1-13.7-4.4-13.7-12.7v-.1c0-7.5,6-12.5,14.5-12.5a24,24,0,0,1,15.4,5.3l-4.7,6.9c-3.7-2.5-7.3-4.1-10.8-4.1s-5.3,1.6-5.3,3.6v.1C266.53,39.79,268.23,40.69,275.43,42.49Zm40.2,24.8V49.59c0-4.3-2-6.5-5.4-6.5s-5.6,2.2-5.6,6.5v17.7h-9V24.09h9v16c2.1-2.7,4.7-5.1,9.3-5.1,6.8,0,10.8,4.5,10.8,11.8v20.5Zm46.3-12.7h-22.1c.9,4.1,3.7,6.2,7.8,6.2a10.14,10.14,0,0,0,7.7-3.3l5.2,4.6c-3,3.7-7.2,5.9-13,5.9-9.5,0-16.6-6.7-16.6-16.4v-.1c0-9.1,6.5-16.5,15.7-16.5,10.6,0,15.5,8.2,15.5,17.2A17.52,17.52,0,0,0,361.93,54.59Zm-15.3-12.4c-3.7,0-6.2,2.7-6.9,6.7h13.6C352.73,44.89,350.33,42.19,346.63,42.19Zm22.5,25.1V24.09h9v43.2Zm31.1-36c-2.1,0-3.3,1.1-3.3,3.4v1.2h7.3v7.3H397v24h-9v-24h-3.7v-7.4H388v-2c0-3.5.9-6,2.5-7.7s4.1-2.5,7.3-2.5a21.34,21.34,0,0,1,6.4.9V32a11.86,11.86,0,0,0-4-.7Zm62.9,24.5v.1c0,7.6-6.2,11.4-15.5,11.4h-19.7V25.89h19.2c4.7,0,8.5,1.3,10.8,3.7a9.42,9.42,0,0,1,2.8,7v.1a9.55,9.55,0,0,1-5.4,8.9c4.9,1.9,7.8,4.7,7.8,10.2Zm-11.4-17.7c0-2.7-2.1-4.3-6-4.3h-9v8.8h8.4c4,0,6.6-1.3,6.6-4.4Zm2.4,16.6c0-2.8-2.1-4.5-6.7-4.5h-10.5v9.1h10.8c4,0,6.5-1.4,6.5-4.5v-.1ZM485.33,68c-9.8,0-17.1-7.3-17.1-16.4v-.1c0-9.1,7.3-16.5,17.2-16.5s17.1,7.3,17.1,16.4v.1C502.53,60.59,495.13,68,485.33,68Zm8.3-16.5c0-4.7-3.4-8.8-8.3-8.8-5.2,0-8.2,4-8.2,8.6v.1c0,4.7,3.4,8.8,8.3,8.8,5.2,0,8.2-4,8.2-8.6Zm31,16.5c-9.8,0-17.1-7.3-17.1-16.4v-.1c0-9.1,7.3-16.5,17.2-16.5s17.1,7.3,17.1,16.4v.1C541.83,60.59,534.43,68,524.63,68Zm8.3-16.5c0-4.7-3.4-8.8-8.3-8.8-5.1,0-8.2,4-8.2,8.6v.1c0,4.7,3.4,8.8,8.3,8.8,5.1,0,8.2-4,8.2-8.6ZM579,67.29h-10.3l-8.3-13-3.1,3.3v9.6h-9V24.09h9v23l10.5-11.5h10.8l-12.1,12.5Zm18-19.2c4.4,1.5,9.6,3.6,9.6,9.4v.1c0,7-5.3,10.2-12.1,10.2a22.32,22.32,0,0,1-13.6-4.8l3.8-5.9a17.63,17.63,0,0,0,10,3.8c2.6,0,3.8-.9,3.8-2.4v-.1c0-2-3.1-2.6-6.6-3.7-4.4-1.3-9.5-3.4-9.5-9.5v-.1c0-6.5,5.2-10.1,11.6-10.1a22,22,0,0,1,11.8,3.7l-3.4,6.2c-3.1-1.8-6.3-3-8.6-3s-3.3.9-3.3,2.2v.1C590.63,46.09,593.63,46.89,597,48.09Z" transform="translate(-0.23 -0.14)"/><g class="cls-2"><path class="cls-1" d="M.24,96.38V.14h618V96.38Z" transform="translate(-0.23 -0.14)"/><path class="cls-1" d="M140.69,70.79V21.89h.11V70.8Z" transform="translate(-0.23 -0.14)"/></g><path class="cls-1" d="M305.13,91.19v1.2h-8.2V81.19H305v1.2h-6.8v3.8h6.1v1.2h-6.1v3.9h6.9Zm12.7,1.2h-1.4l-2.6-3.4-2.6,3.4h-1.3l3.2-4.2-3.1-4.1h1.4l2.4,3.2,2.4-3.2h1.4l-3.1,4,3.3,4.3Zm9.6.2a3.8,3.8,0,0,1-3.2-1.8v4.1H323V84.09h1.2v1.7a3.66,3.66,0,0,1,3.2-1.8,4.08,4.08,0,0,1,4,4.15.76.76,0,0,0,0,.15h0a4.07,4.07,0,0,1-3.85,4.29Zm2.7-4.4A2.93,2.93,0,0,0,327.5,85h-.27a3.12,3.12,0,0,0-3,3.2h0a3.12,3.12,0,0,0,3,3.2C328.83,91.49,330.13,90.29,330.13,88.19Zm6.9,4.2V80.69h1.2v11.7Zm11,.2a4.27,4.27,0,0,1-4.3-4.24v-.06h0a4.3,4.3,0,0,1,8.6,0h0a4.21,4.21,0,0,1-4.12,4.3Zm3.1-4.3a3.05,3.05,0,0,0-6.1,0h0a3.05,3.05,0,0,0,6.1,0Zm11.2-3c-1.8,0-3.3,1.3-3.3,3.8v3.3h-1.2v-8.3H359v2.2a3.45,3.45,0,0,1,3.4-2.3Zm5.2-3v-1.4h1.4v1.4Zm1.3,10.1h-1.2v-8.3h1.2v8.3Zm12.1,0v-4.8a2.21,2.21,0,0,0-1.9-2.48,1.79,1.79,0,0,0-.4,0,2.43,2.43,0,0,0-2.5,2.37,1.77,1.77,0,0,0,0,.23v4.7h-1.2v-8.3h1.2v1.4a3.22,3.22,0,0,1,6,1.7v5.1h-1.2Zm13.8,1.5a4.42,4.42,0,0,1-3.2,1.1,6.34,6.34,0,0,1-3.8-1.2l.6-1a5.15,5.15,0,0,0,3.2,1.1,2.71,2.71,0,0,0,3-2.4,2.77,2.77,0,0,0,0-.5V90a3.72,3.72,0,0,1-3.2,1.7,3.84,3.84,0,0,1-3.9-3.78v-.12h0a3.84,3.84,0,0,1,3.78-3.9h.12a3.66,3.66,0,0,1,3.2,1.7v-1.5h1.2v6.8a3.66,3.66,0,0,1-1,3Zm-.1-6.1a2.9,2.9,0,0,0-3-2.8h0a2.82,2.82,0,0,0-2.9,2.74v.06h0a2.76,2.76,0,0,0,2.72,2.8h.18a2.84,2.84,0,0,0,3-2.68Zm16.6-5.4v4h6.1v1.2h-6.1v4.9h-1.3V81.29h8v1.2h-6.7Zm17.3,10v-1.2a3.76,3.76,0,0,1-3,1.4c-1.6,0-3.1-.9-3.1-2.6h0c0-1.8,1.4-2.7,3.5-2.7a6,6,0,0,1,2.5.4v-.3c0-1.5-.9-2.2-2.4-2.2a5.18,5.18,0,0,0-2.5.6l-.4-1a7.1,7.1,0,0,1,3-.7,3.66,3.66,0,0,1,2.7.9,3.24,3.24,0,0,1,.9,2.4v5.1h-1.2Zm0-3.8a7.51,7.51,0,0,0-2.4-.4c-1.5,0-2.4.7-2.4,1.7h0c0,1,1,1.6,2.1,1.6,1.5,0,2.8-.9,2.8-2.2v-.7Zm7-6.3v-1.4h1.4v1.4Zm1.4,10.1h-1.2v-8.3h1.2Zm7.7-7.2V90a1.26,1.26,0,0,0,1.1,1.4,1.5,1.5,0,0,0,.3,0,2.63,2.63,0,0,0,1.2-.3v1.1a3.29,3.29,0,0,1-1.5.4,2.1,2.1,0,0,1-2.3-1.88,2.94,2.94,0,0,1,0-.42v-5h-1.2v-1.1h1.2v-2.5h1.2v2.5h2.6v1.1h-2.6Zm14,7.2v-4.8a2.21,2.21,0,0,0-1.9-2.48,1.79,1.79,0,0,0-.4,0,2.43,2.43,0,0,0-2.5,2.37,1.77,1.77,0,0,0,0,.23v4.7h-1.2V80.69h1.2v4.8a3.22,3.22,0,0,1,6,1.7v5.1h-1.2Zm24.3-3.1h0c0,2-1.6,3.1-4.1,3.1h-5V81.19h4.8a4,4,0,0,1,2.9,1,2.42,2.42,0,0,1,.7,1.8h0a2.68,2.68,0,0,1-1.8,2.6C481.83,87,482.93,87.79,482.93,89.29Zm-1.9-5.1h0c0-1.1-.9-1.9-2.5-1.9h-3.4v3.9h3.3C479.93,86.19,481,85.49,481,84.19Zm.6,5c0-1.2-1-1.9-3-1.9h-3.5v4h3.8C480.63,91.29,481.63,90.49,481.63,89.19Zm12.2,3.2v-1.2a3.76,3.76,0,0,1-3,1.4c-1.6,0-3.1-.9-3.1-2.6h0c0-1.8,1.4-2.7,3.5-2.7a6,6,0,0,1,2.5.4v-.3c0-1.5-.9-2.2-2.4-2.2a5.18,5.18,0,0,0-2.5.6l-.4-1a7.1,7.1,0,0,1,3-.7,3.66,3.66,0,0,1,2.7.9,3.24,3.24,0,0,1,.9,2.4v5.1h-1.2Zm.1-3.8a7.51,7.51,0,0,0-2.4-.4c-1.5,0-2.4.7-2.4,1.7h0c0,1,1,1.6,2.1,1.6,1.5,0,2.8-.9,2.8-2.2v-.7Zm10-.9c1.3.4,2.7.9,2.7,2.4h0c0,1.6-1.3,2.5-2.9,2.5a5.83,5.83,0,0,1-3.4-1.2l.6-.9a4.76,4.76,0,0,0,2.9,1.1c1,0,1.7-.5,1.7-1.3h0c0-.8-1-1.2-2.1-1.5-1.3-.4-2.7-.8-2.7-2.3h0a2.54,2.54,0,0,1,2.66-2.41h.14a6.48,6.48,0,0,1,3,.9l-.6.9a4.59,4.59,0,0,0-2.4-.8c-1,0-1.6.5-1.6,1.2h0C501.83,87,502.83,87.29,503.93,87.69Zm15.4,1.1h-6.6a3,3,0,0,0,2.9,2.8,3.55,3.55,0,0,0,2.6-1.2l.8.7a4.24,4.24,0,1,1-3.5-7c2.4,0,3.9,2,3.9,4.4-.1-.1-.1.1-.1.3Zm-3.9-3.8a2.93,2.93,0,0,0-2.7,2.8H518C517.93,86.29,517.13,85,515.43,85Zm15.9,7.4v-1.7a3.66,3.66,0,0,1-3.2,1.8,4.08,4.08,0,0,1-4-4.15.76.76,0,0,0,0-.15h0A4.07,4.07,0,0,1,528,83.9h.15a3.8,3.8,0,0,1,3.2,1.8v-5h1.2v11.7Zm.1-4.2a3.12,3.12,0,0,0-3-3.2,2.91,2.91,0,0,0-2.91,2.93,2.44,2.44,0,0,0,0,.27h0a2.93,2.93,0,0,0,2.63,3.19h.27a3,3,0,0,0,3-3C531.44,88.33,531.43,88.26,531.43,88.19Zm24.4,1.1h0c0,2-1.6,3.1-4.1,3.1h-5V81.19h4.8a4,4,0,0,1,2.9,1,2.42,2.42,0,0,1,.7,1.8h0a2.68,2.68,0,0,1-1.8,2.6c1.4.4,2.5,1.2,2.5,2.7Zm-1.9-5.1h0c0-1.1-.9-1.9-2.5-1.9H548v3.9h3.3c1.5,0,2.6-.7,2.6-2Zm.6,5c0-1.2-1-1.9-3-1.9H548v4h3.8C553.43,91.29,554.53,90.49,554.53,89.19Zm10.5,3.4a4.27,4.27,0,0,1-4.3-4.24v-.06h0a4.3,4.3,0,0,1,8.6,0v0h0a4.21,4.21,0,0,1-4.12,4.3Zm3.1-4.3a3.05,3.05,0,0,0-6.1,0v0h0a3.05,3.05,0,0,0,6.1,0Zm10.5,4.3a4.27,4.27,0,0,1-4.3-4.24v-.06h0a4.3,4.3,0,1,1,8.6,0v0h0a4.27,4.27,0,0,1-4.24,4.3Zm3.1-4.3a3.05,3.05,0,0,0-6.1,0v0h0a3.08,3.08,0,0,0,3,3.2h.14A3.12,3.12,0,0,0,581.73,88.29Zm14,4.1h-1.5l-3-3.9-1.7,1.7v2.2h-1.2V80.69h1.2v8.1l4.5-4.7h1.5l-3.5,3.6Zm8-4.7c1.3.4,2.7.9,2.7,2.4h0c0,1.6-1.3,2.5-2.9,2.5a5.83,5.83,0,0,1-3.4-1.2l.6-.9a4.76,4.76,0,0,0,2.9,1.1c1,0,1.7-.5,1.7-1.3h0c0-.8-1-1.2-2.1-1.5-1.3-.4-2.7-.8-2.7-2.3h0a2.54,2.54,0,0,1,2.66-2.41h.14a6.48,6.48,0,0,1,3,.9l-.6.9a4.59,4.59,0,0,0-2.4-.8c-1,0-1.6.5-1.6,1.2h0C601.53,87,602.63,87.29,603.73,87.69Z" transform="translate(-0.23 -0.14)"/></svg>